<svg xmlns="http://www.w3.org/2000/svg" xmlns:svg="http://www.w3.org/2000/svg" id="svg2" width="24" height="24" version="1.2" viewBox="0 0 24 24"><metadata id="metadata12"/><path id="path3336" d="M 12 8.8710938 A 3.1280487 3.1280487 0 0 0 8.8710938 12 A 3.1280487 3.1280487 0 0 0 12 15.128906 A 3.1280487 3.1280487 0 0 0 15.128906 12 A 3.1280487 3.1280487 0 0 0 12 8.8710938 z M 12 9.8789062 A 2.1213202 2.1213202 0 0 1 14.121094 12 A 2.1213202 2.1213202 0 0 1 12 14.121094 A 2.1213202 2.1213202 0 0 1 9.8789062 12 A 2.1213202 2.1213202 0 0 1 12 9.8789062 z" style="opacity:1;fill:#000;fill-opacity:1;stroke:none;stroke-width:.70899999;stroke-linecap:round;stroke-miterlimit:4;stroke-dasharray:none;stroke-dashoffset:0;stroke-opacity:1"/><rect style="opacity:1;fill:#000;fill-opacity:1;stroke:none;stroke-width:.70899999;stroke-linecap:round;stroke-miterlimit:4;stroke-dasharray:none;stroke-dashoffset:0;stroke-opacity:1" id="rect4151" width="12.34" height="1.678" x="5.83" y="5.494"/><rect id="rect4153" width="12.34" height="1.678" x="5.83" y="1.375" style="opacity:1;fill:#000;fill-opacity:1;stroke:none;stroke-width:.70899999;stroke-linecap:round;stroke-miterlimit:4;stroke-dasharray:none;stroke-dashoffset:0;stroke-opacity:1"/><rect id="rect4155" width="12.34" height="1.678" x="5.83" y="16.939" style="opacity:1;fill:#000;fill-opacity:1;stroke:none;stroke-width:.70899999;stroke-linecap:round;stroke-miterlimit:4;stroke-dasharray:none;stroke-dashoffset:0;stroke-opacity:1"/><rect style="opacity:1;fill:#000;fill-opacity:1;stroke:none;stroke-width:.70899999;stroke-linecap:round;stroke-miterlimit:4;stroke-dasharray:none;stroke-dashoffset:0;stroke-opacity:1" id="rect4157" width="12.34" height="1.678" x="5.83" y="20.651"/><circle id="path3336-6" cx="74.441" cy="13.5" r="0" style="opacity:1;fill:#000;fill-opacity:1;stroke:none;stroke-width:.70899999;stroke-linecap:round;stroke-miterlimit:4;stroke-dasharray:none;stroke-dashoffset:0;stroke-opacity:1"/><circle style="opacity:1;fill:#fffdfd;fill-opacity:1;stroke:none;stroke-width:.70899999;stroke-linecap:round;stroke-miterlimit:4;stroke-dasharray:none;stroke-dashoffset:0;stroke-opacity:1" id="circle3343-7" cx="74.441" cy="13.5" r="0"/></svg>