<svg xmlns="http://www.w3.org/2000/svg" xmlns:svg="http://www.w3.org/2000/svg" id="svg2" width="24" height="24" version="1.2" viewBox="0 0 24 24"><metadata id="metadata12"/><path id="path3336" d="M 9.0192742,11.85182 A 3.1280487,3.1280487 0 0 0 12.14818,14.980726 3.1280487,3.1280487 0 0 0 15.277086,11.85182 3.1280487,3.1280487 0 0 0 12.14818,8.7229136 3.1280487,3.1280487 0 0 0 9.0192742,11.85182 Z m 1.0078128,0 A 2.1213202,2.1213202 0 0 1 12.14818,9.7307256 2.1213202,2.1213202 0 0 1 14.269274,11.85182 2.1213202,2.1213202 0 0 1 12.14818,13.972913 2.1213202,2.1213202 0 0 1 10.027087,11.85182 Z" style="opacity:1;fill:#000;fill-opacity:1;stroke:none;stroke-width:.70899999;stroke-linecap:round;stroke-miterlimit:4;stroke-dasharray:none;stroke-dashoffset:0;stroke-opacity:1"/><rect style="opacity:1;fill:#000;fill-opacity:1;stroke:none;stroke-width:.70899999;stroke-linecap:round;stroke-miterlimit:4;stroke-dasharray:none;stroke-dashoffset:0;stroke-opacity:1" id="rect4151" width="12.34" height="1.678" x="-18.022" y="5.642" transform="matrix(0,-1,1,0,0,0)"/><rect id="rect4153" width="12.34" height="1.678" x="-18.022" y="1.523" transform="matrix(0,-1,1,0,0,0)" style="opacity:1;fill:#000;fill-opacity:1;stroke:none;stroke-width:.70899999;stroke-linecap:round;stroke-miterlimit:4;stroke-dasharray:none;stroke-dashoffset:0;stroke-opacity:1"/><rect id="rect4155" width="12.34" height="1.678" x="-18.022" y="17.087" transform="matrix(0,-1,1,0,0,0)" style="opacity:1;fill:#000;fill-opacity:1;stroke:none;stroke-width:.70899999;stroke-linecap:round;stroke-miterlimit:4;stroke-dasharray:none;stroke-dashoffset:0;stroke-opacity:1"/><rect style="opacity:1;fill:#000;fill-opacity:1;stroke:none;stroke-width:.70899999;stroke-linecap:round;stroke-miterlimit:4;stroke-dasharray:none;stroke-dashoffset:0;stroke-opacity:1" id="rect4157" width="12.34" height="1.678" x="-18.022" y="20.799" transform="matrix(0,-1,1,0,0,0)"/><circle id="path3336-6" cx="74.441" cy="13.5" r="0" style="opacity:1;fill:#000;fill-opacity:1;stroke:none;stroke-width:.70899999;stroke-linecap:round;stroke-miterlimit:4;stroke-dasharray:none;stroke-dashoffset:0;stroke-opacity:1"/><circle style="opacity:1;fill:#fffdfd;fill-opacity:1;stroke:none;stroke-width:.70899999;stroke-linecap:round;stroke-miterlimit:4;stroke-dasharray:none;stroke-dashoffset:0;stroke-opacity:1" id="circle3343-7" cx="74.441" cy="13.5" r="0"/></svg>