<svg xmlns="http://www.w3.org/2000/svg" xmlns:svg="http://www.w3.org/2000/svg" id="svg5332" width="64" height="64" version="1.1" viewBox="0 0 64 64"><metadata id="metadata5337"/><g id="layer1" transform="translate(0,-988.36216)"><g id="g5857" transform="translate(0,-2.2617187e-5)"><circle style="fill:none;stroke:#000;stroke-width:4.359375;stroke-miterlimit:4;stroke-dasharray:none;stroke-opacity:1" id="path7511-3-8-6-2-5-2-6" cx="32" cy="1020.362" r="28.82"/><path id="path3476" d="m 35.552054,1014.4088 -3.057829,14.4391 c -0.128038,0.552 -0.168924,0.9759 -0.168924,1.359 0,1.1894 0.549807,1.5724 1.741952,1.5724 0.761768,0 1.103917,-0.1264 1.358378,-0.2533 -0.214113,3.0137 -2.379985,4.3726 -4.673358,4.3726 -2.54837,0 -4.544783,-1.5284 -4.544783,-5.0978 0,-0.8043 0.128038,-1.7393 0.339998,-2.7604 l 2.888907,-13.6322 6.115659,0 z m -1.910875,-11.0355 c 1.868375,0 3.397828,1.5279 3.397828,3.3957 0,1.87 -1.529991,3.3575 -3.397828,3.3575 -1.869988,0 -3.354789,-1.4875 -3.354789,-3.3575 -5.38e-4,-1.8678 1.484801,-3.3957 3.354789,-3.3957 z"/></g></g></svg>