<svg xmlns="http://www.w3.org/2000/svg" xmlns:svg="http://www.w3.org/2000/svg" id="svg5332" width="64" height="64" version="1.1" viewBox="0 0 64 64"><metadata id="metadata5337"/><g id="layer1" transform="translate(0,-988.36216)"><g id="g6116" transform="matrix(0.93996508,-0.34127063,0.34127063,0.93996508,-346.29853,72.177979)"><rect style="fill:none;stroke:#000;stroke-width:2.86239505;stroke-miterlimit:4;stroke-dasharray:none;stroke-opacity:1" id="rect7803-0-2-1-4-5-96-1-0" width="30.724" height="34.655" x="16.687" y="1002.808" rx="2.5" ry="2.853"/><path style="color:#000;font-style:normal;font-variant:normal;font-weight:400;font-stretch:normal;font-size:medium;line-height:normal;font-family:sans-serif;text-indent:0;text-align:start;text-decoration:none;text-decoration-line:none;text-decoration-style:solid;text-decoration-color:#000;letter-spacing:normal;word-spacing:normal;text-transform:none;direction:ltr;block-progression:tb;writing-mode:lr-tb;baseline-shift:baseline;text-anchor:start;white-space:normal;clip-rule:nonzero;display:inline;overflow:visible;visibility:visible;opacity:1;isolation:auto;mix-blend-mode:normal;color-interpolation:sRGB;color-interpolation-filters:linearRGB;solid-color:#000;solid-opacity:1;fill:#000;fill-opacity:1;fill-rule:nonzero;stroke:none;stroke-width:4.359375;stroke-linecap:butt;stroke-linejoin:miter;stroke-miterlimit:4;stroke-dasharray:none;stroke-dashoffset:0;stroke-opacity:1;color-rendering:auto;image-rendering:auto;shape-rendering:auto;text-rendering:auto;enable-background:accumulate" id="path7511-3-8-6-2-5-2-6" d="m 32,989.3622 c -14.80378,0 -27.2084401,10.42959 -30.2695312,24.3262 l 12.0734662,-5.979 -4.582272,-1.1911 C 13.890279,998.83877 22.3347,993.72158 32,993.72158 c 12.433892,0 22.847298,8.46872 25.800781,19.96682 l 4.46875,0 C 59.20844,999.79179 46.80378,989.3622 32,989.3622 Z M 1.7089844,1026.9384 C 4.7334431,1040.8836 17.161678,1051.3622 32,1051.3622 c 14.838322,0 27.266557,-10.4786 30.291016,-24.4238 l -12.189761,5.2541 5.12329,1.2478 C 50.66162,1041.543 41.982195,1047.0028 32,1047.0028 c -12.468173,0 -22.9038891,-8.5178 -25.8242188,-20.0644 z"/><text style="font-style:normal;font-variant:normal;font-weight:400;font-stretch:normal;font-size:16.78224373px;line-height:120.00000477%;font-family:Arial;-inkscape-font-specification:'Arial, Normal';text-align:start;letter-spacing:0;word-spacing:0;writing-mode:lr-tb;text-anchor:start;fill:#000;fill-opacity:1;stroke:none;stroke-width:1px;stroke-linecap:butt;stroke-linejoin:miter;stroke-opacity:1" id="text6112" x="20.08" y="1033.355" xml:space="preserve"><tspan id="tspan6114" x="20.08" y="1033.355">&lt;/&gt;</tspan></text></g></g></svg>