<svg xmlns="http://www.w3.org/2000/svg" xmlns:ooo="http://xml.openoffice.org/svg/export" xmlns:osb="http://www.openswatchbook.org/uri/2009/osb" xmlns:svg="http://www.w3.org/2000/svg" xmlns:xlink="http://www.w3.org/1999/xlink" id="svg3347" width="190mm" height="190mm" fill-rule="evenodd" stroke-linejoin="round" stroke-width="28.222" clip-path="url(#presentation_clip_path)" preserveAspectRatio="xMidYMid" version="1.2" viewBox="0 0 19000 19000" xml:space="preserve"><metadata id="metadata3491"/><defs id="defs3349" class="ClipPathGroup"><linearGradient id="linearGradient3844" osb:paint="solid"><stop id="stop3846" offset="0" style="stop-color:#000;stop-opacity:1"/></linearGradient><linearGradient id="linearGradient3838" osb:paint="solid"><stop id="stop3840" offset="0" style="stop-color:#000;stop-opacity:1"/></linearGradient><linearGradient id="linearGradient3826" osb:paint="solid"><stop id="stop3828" offset="0" style="stop-color:#fff;stop-opacity:1"/></linearGradient><linearGradient id="linearGradient3820" osb:paint="solid"><stop id="stop3822" offset="0" style="stop-color:#fff;stop-opacity:1"/></linearGradient><linearGradient id="linearGradient3814" osb:paint="solid"><stop id="stop3816" offset="0" style="stop-color:#009000;stop-opacity:1"/></linearGradient><clipPath id="presentation_clip_path" clipPathUnits="userSpaceOnUse"><rect id="rect3352" width="19000" height="19000" x="0" y="0"/></clipPath><linearGradient id="linearGradient3818" x1="8385.889" x2="17614.111" y1="9800" y2="9800" gradientUnits="userSpaceOnUse" xlink:href="#linearGradient3814"/><linearGradient id="linearGradient3824" x1="1485.889" x2="7814.111" y1="9800" y2="9800" gradientUnits="userSpaceOnUse" xlink:href="#linearGradient3820"/><linearGradient id="linearGradient3830" x1="15416.328" x2="18735.195" y1="1734.33" y2="1734.33" gradientUnits="userSpaceOnUse" xlink:href="#linearGradient3826"/><linearGradient id="linearGradient3832" x1="11162.328" x2="13794.105" y1="1734.33" y2="1734.33" gradientUnits="userSpaceOnUse" xlink:href="#linearGradient3826"/><linearGradient id="linearGradient3834" x1="6748.328" x2="9796.824" y1="1669.33" y2="1669.33" gradientUnits="userSpaceOnUse" xlink:href="#linearGradient3826"/><linearGradient id="linearGradient3836" x1="1644.008" x2="5454.008" y1="1671.811" y2="1671.811" gradientUnits="userSpaceOnUse" xlink:href="#linearGradient3826"/><linearGradient id="linearGradient3842" x1="-14.111" x2="19014.111" y1="9500" y2="9500" gradientUnits="userSpaceOnUse" xlink:href="#linearGradient3838"/><linearGradient id="linearGradient3848" x1="-14.111" x2="19014.111" y1="9500" y2="9500" gradientUnits="userSpaceOnUse" xlink:href="#linearGradient3844"/></defs><defs id="defs3358" class="EmbeddedBulletChars"><g id="bullet-char-template(57356)" transform="scale(0.00048828125,-0.00048828125)"><path id="path3361" d="M 580,1141 L 1163,571 580,0 -4,571 580,1141 Z"/></g><g id="bullet-char-template(57354)" transform="scale(0.00048828125,-0.00048828125)"><path id="path3364" d="M 8,1128 L 1137,1128 1137,0 8,0 8,1128 Z"/></g><g id="bullet-char-template(10146)" transform="scale(0.00048828125,-0.00048828125)"><path id="path3367" d="M 174,0 L 602,739 174,1481 1456,739 174,0 Z M 1358,739 L 309,1346 659,739 1358,739 Z"/></g><g id="bullet-char-template(10132)" transform="scale(0.00048828125,-0.00048828125)"><path id="path3370" d="M 2015,739 L 1276,0 717,0 1260,543 174,543 174,936 1260,936 717,1481 1274,1481 2015,739 Z"/></g><g id="bullet-char-template(10007)" transform="scale(0.00048828125,-0.00048828125)"><path id="path3373" d="M 0,-2 C -7,14 -16,27 -25,37 L 356,567 C 262,823 215,952 215,954 215,979 228,992 255,992 264,992 276,990 289,987 310,991 331,999 354,1012 L 381,999 492,748 772,1049 836,1024 860,1049 C 881,1039 901,1025 922,1006 886,937 835,863 770,784 769,783 710,716 594,584 L 774,223 C 774,196 753,168 711,139 L 727,119 C 717,90 699,76 672,76 641,76 570,178 457,381 L 164,-76 C 142,-110 111,-127 72,-127 30,-127 9,-110 8,-76 1,-67 -2,-52 -2,-32 -2,-23 -1,-13 0,-2 Z"/></g><g id="bullet-char-template(10004)" transform="scale(0.00048828125,-0.00048828125)"><path id="path3376" d="M 285,-33 C 182,-33 111,30 74,156 52,228 41,333 41,471 41,549 55,616 82,672 116,743 169,778 240,778 293,778 328,747 346,684 L 369,508 C 377,444 397,411 428,410 L 1163,1116 C 1174,1127 1196,1133 1229,1133 1271,1133 1292,1118 1292,1087 L 1292,965 C 1292,929 1282,901 1262,881 L 442,47 C 390,-6 338,-33 285,-33 Z"/></g><g id="bullet-char-template(9679)" transform="scale(0.00048828125,-0.00048828125)"><path id="path3379" d="M 813,0 C 632,0 489,54 383,161 276,268 223,411 223,592 223,773 276,916 383,1023 489,1130 632,1184 813,1184 992,1184 1136,1130 1245,1023 1353,916 1407,772 1407,592 1407,412 1353,268 1245,161 1136,54 992,0 813,0 Z"/></g><g id="bullet-char-template(8226)" transform="scale(0.00048828125,-0.00048828125)"><path id="path3382" d="M 346,457 C 273,457 209,483 155,535 101,586 74,649 74,723 74,796 101,859 155,911 209,963 273,989 346,989 419,989 480,963 531,910 582,859 608,796 608,723 608,648 583,586 532,535 482,483 420,457 346,457 Z"/></g><g id="bullet-char-template(8211)" transform="scale(0.00048828125,-0.00048828125)"><path id="path3385" d="M -4,459 L 1135,459 1135,606 -4,606 -4,459 Z"/></g></defs><g id="g3399" class="Page"><g style="stroke:url(#linearGradient3842);fill-opacity:1;fill:url(#linearGradient3848)" id="g3403" class="com.sun.star.drawing.CustomShape"><g style="stroke:url(#linearGradient3842);fill-opacity:1;fill:url(#linearGradient3848)" id="id3"><path style="fill:url(#linearGradient3848);stroke:url(#linearGradient3842);fill-opacity:1" id="path3406" d="M 9500,19000 0,19000 0,0 l 19000,0 0,19000 -9500,0 z"/><path style="fill:url(#linearGradient3848);stroke:url(#linearGradient3842);fill-opacity:1" id="path3408" d="M 9500,19000 0,19000 0,0 l 19000,0 0,19000 -9500,0 z"/></g></g><g style="fill:#fff;stroke:url(#linearGradient3824)" id="g3410" class="com.sun.star.drawing.PolyPolygonShape" transform="translate(0,2427.1101)"><g style="fill:#fff;stroke:url(#linearGradient3824)" id="id4"><path style="fill:#fff;stroke:url(#linearGradient3824)" id="path3413" d="m 1500,4800 6300,0 0,2000 -2000,0 0,8000 -2300,0 0,-8000 -2000,0 0,-800 0,-1200 z"/><path style="fill:#fff;stroke:url(#linearGradient3824)" id="path3415" d="m 1500,4800 6300,0 0,2000 -2000,0 0,8000 -2300,0 0,-8000 -2000,0 0,-800 0,-1200 z"/></g></g><g style="fill:#009000;fill-opacity:1;stroke:url(#linearGradient3818)" id="g3425" class="com.sun.star.drawing.PolyPolygonShape" transform="translate(0,2427.1101)"><g style="fill:#009000;fill-opacity:1;stroke:url(#linearGradient3818)" id="id5"><path style="fill:#009000;stroke:url(#linearGradient3818);fill-opacity:1" id="path3428" d="m 17400,4800 -2600,0 -1800,3100 -1900,-3100 -2600,0 3000,5000 -3100,5000 2500,0 2100,-3300 2000,3300 2600,0 -3200,-5000 3000,-5000 z"/><path style="fill:#009000;stroke:url(#linearGradient3818);fill-opacity:1" id="path3430" d="m 17400,4800 -2600,0 -1800,3100 -1900,-3100 -2600,0 3000,5000 -3100,5000 2500,0 2100,-3300 2000,3300 2600,0 -3200,-5000 3000,-5000 z"/></g></g><g style="stroke:url(#linearGradient3836)" id="g3445" class="com.sun.star.drawing.TextShape" transform="translate(-169.33334,2144.8881)"><g style="stroke:url(#linearGradient3836)" id="id7"><text id="text3448" class="TextShape" style="line-height:125%;stroke:url(#linearGradient3836)"><tspan id="tspan3450" class="TextParagraph" font-size="3104" font-weight="700" style="font-size:5080px;font-style:normal;font-variant:normal;font-weight:700;font-stretch:normal;text-align:start;line-height:125%;writing-mode:lr-tb;text-anchor:start;font-family:Sans;-inkscape-font-specification:Sans Bold;stroke:url(#linearGradient3836)"><tspan style="font-size:5080px;font-style:normal;font-variant:normal;font-weight:700;font-stretch:normal;text-align:start;line-height:125%;writing-mode:lr-tb;text-anchor:start;fill:#fff;stroke:url(#linearGradient3836);font-family:Sans;-inkscape-font-specification:Sans Bold" id="tspan3452" x="1391" y="3521" class="TextPosition">O</tspan></tspan></text></g></g><g style="stroke:url(#linearGradient3834)" id="g3456" class="com.sun.star.drawing.TextShape" transform="translate(-508.00004,2144.8881)"><g style="stroke:url(#linearGradient3834)" id="id8"><text id="text3459" class="TextShape" style="line-height:125%;stroke:url(#linearGradient3834)"><tspan id="tspan3461" class="TextParagraph" font-size="3104" font-weight="700" style="font-size:5080px;font-style:normal;font-variant:normal;font-weight:700;font-stretch:normal;text-align:start;line-height:125%;writing-mode:lr-tb;text-anchor:start;font-family:Sans;-inkscape-font-specification:Sans Bold;stroke:url(#linearGradient3834)"><tspan style="font-size:5080px;font-style:normal;font-variant:normal;font-weight:700;font-stretch:normal;text-align:start;line-height:125%;writing-mode:lr-tb;text-anchor:start;fill:#fff;stroke:url(#linearGradient3834);font-family:Sans;-inkscape-font-specification:Sans Bold" id="tspan3463" x="6282" y="3521" class="TextPosition">P</tspan></tspan></text></g></g><g style="stroke:url(#linearGradient3832)" id="g3467" class="com.sun.star.drawing.TextShape" transform="translate(-846.66674,2144.8881)"><g style="stroke:url(#linearGradient3832)" id="id9"><text id="text3470" class="TextShape" style="line-height:125%;stroke:url(#linearGradient3832)"><tspan id="tspan3472" class="TextParagraph" font-size="3104" font-weight="700" style="font-size:5080px;font-style:normal;font-variant:normal;font-weight:700;font-stretch:normal;text-align:start;line-height:125%;writing-mode:lr-tb;text-anchor:start;font-family:Sans;-inkscape-font-specification:Sans Bold;stroke:url(#linearGradient3832)"><tspan style="font-size:5080px;font-style:normal;font-variant:normal;font-weight:700;font-stretch:normal;text-align:start;line-height:125%;writing-mode:lr-tb;text-anchor:start;fill:#fff;stroke:url(#linearGradient3832);font-family:Sans;-inkscape-font-specification:Sans Bold" id="tspan3474" x="10696" y="3586" class="TextPosition">E</tspan></tspan></text></g></g><g style="stroke:url(#linearGradient3830)" id="g3478" class="com.sun.star.drawing.TextShape" transform="translate(-1241.7777,2144.8881)"><g style="stroke:url(#linearGradient3830)" id="id10"><text id="text3481" class="TextShape" style="line-height:125%;stroke:url(#linearGradient3830)"><tspan id="tspan3483" class="TextParagraph" font-size="3104" font-weight="700" style="font-size:5080px;font-style:normal;font-variant:normal;font-weight:700;font-stretch:normal;text-align:start;line-height:125%;writing-mode:lr-tb;text-anchor:start;font-family:Sans;-inkscape-font-specification:Sans Bold;stroke:url(#linearGradient3830)"><tspan style="font-size:5080px;font-style:normal;font-variant:normal;font-weight:700;font-stretch:normal;text-align:start;line-height:125%;writing-mode:lr-tb;text-anchor:start;fill:#fff;stroke:url(#linearGradient3830);font-family:Sans;-inkscape-font-specification:Sans Bold" id="tspan3485" x="14950" y="3586" class="TextPosition">N</tspan></tspan></text></g></g></g></svg>