<svg xmlns="http://www.w3.org/2000/svg" xmlns:osb="http://www.openswatchbook.org/uri/2009/osb" xmlns:svg="http://www.w3.org/2000/svg" xmlns:xlink="http://www.w3.org/1999/xlink" id="svg2" width="1345.667" height="673.229" version="1.1"><defs id="defs78"><linearGradient id="linearGradient3821" osb:paint="solid"><stop id="stop3823" offset="0" style="stop-color:#009000;stop-opacity:1"/></linearGradient><linearGradient id="linearGradient3815" osb:paint="solid"><stop id="stop3817" offset="0" style="stop-color:#fff;stop-opacity:1"/></linearGradient><linearGradient id="linearGradient3807" osb:paint="solid"><stop id="stop3809" offset="0" style="stop-color:#fff;stop-opacity:1"/></linearGradient><linearGradient id="linearGradient3801" osb:paint="solid"><stop id="stop3803" offset="0" style="stop-color:#fff;stop-opacity:1"/></linearGradient><linearGradient id="linearGradient3795" osb:paint="solid"><stop id="stop3797" offset="0" style="stop-color:#fff;stop-opacity:1"/></linearGradient><linearGradient id="linearGradient3789" osb:paint="solid"><stop id="stop3791" offset="0" style="stop-color:#fff;stop-opacity:1"/></linearGradient><linearGradient id="linearGradient3783" osb:paint="solid"><stop id="stop3785" offset="0" style="stop-color:#009000;stop-opacity:1"/></linearGradient><linearGradient id="linearGradient3787" x1="8399.5" x2="17600.5" y1="9800" y2="9800" gradientUnits="userSpaceOnUse" xlink:href="#linearGradient3783"/><linearGradient id="linearGradient3793" x1="1499.5" x2="7800.5" y1="9800" y2="9800" gradientUnits="userSpaceOnUse" xlink:href="#linearGradient3789"/><linearGradient id="linearGradient3799" x1="1499.5" x2="7800.5" y1="9800" y2="9800" gradientUnits="userSpaceOnUse" xlink:href="#linearGradient3795"/><linearGradient id="linearGradient3805" x1="1488.821" x2="17507.216" y1="3830.883" y2="3830.883" gradientUnits="userSpaceOnUse" xlink:href="#linearGradient3801"/><linearGradient id="linearGradient3811" x1="1488.321" x2="17507.716" y1="3830.883" y2="3830.883" gradientUnits="userSpaceOnUse" xlink:href="#linearGradient3807"/><linearGradient id="linearGradient3819" x1="-531.17" x2="-307.177" y1="236.981" y2="236.981" gradientUnits="userSpaceOnUse" xlink:href="#linearGradient3815"/><linearGradient id="linearGradient3825" x1="0" x2="19000" y1="9500" y2="9500" gradientUnits="userSpaceOnUse" xlink:href="#linearGradient3821"/></defs><metadata id="metadata4"/><g id="g10" class="com.sun.star.drawing.CustomShape" transform="scale(0.03543311,0.03543311)"><path id="path12" d="M 9500,19000 0,19000 0,0 H 19000 V 19000 H 9500 z" style="fill:#000"/><path id="path14" d="M 9500,19000 0,19000 0,0 H 19000 V 19000 H 9500 z" style="fill:none"/></g><g style="fill-opacity:1;fill:url(#linearGradient3793);stroke:url(#linearGradient3799)" id="g16" class="com.sun.star.drawing.PolyPolygonShape" transform="matrix(0.03543311,0,0,0.03543311,0,86.000062)"><path id="path18" d="m 1500,4800 6300,0 0,2000 -2000,0 0,8000 -2300,0 0,-8000 -2000,0 0,-800 0,-1200 z" style="fill:url(#linearGradient3793);fill-opacity:1;stroke:url(#linearGradient3799)"/><path id="path20" d="m 1500,4800 6300,0 0,2000 -2000,0 0,8000 -2300,0 0,-8000 -2000,0 0,-800 0,-1200 z" style="fill:url(#linearGradient3793);stroke:url(#linearGradient3799);fill-opacity:1"/></g><g id="g30" class="com.sun.star.drawing.PolyPolygonShape" transform="matrix(0.03543311,0,0,0.03543311,0,86.000062)" style="fill:#009000;stroke:url(#linearGradient3787);fill-opacity:1"><g id="g32" style="fill:#009000;stroke:url(#linearGradient3787);fill-opacity:1"><path style="stroke:url(#linearGradient3787);fill:#009000;fill-opacity:1" id="path34" d="m 17400,4800 -2600,0 -1800,3100 -1900,-3100 -2600,0 3000,5000 -3100,5000 2500,0 2100,-3300 2000,3300 2600,0 -3200,-5000 3000,-5000 z"/><path id="path36" d="m 17400,4800 -2600,0 -1800,3100 -1900,-3100 -2600,0 3000,5000 -3100,5000 2500,0 2100,-3300 2000,3300 2600,0 -3200,-5000 3000,-5000 z" style="stroke:url(#linearGradient3787);fill:#009000;fill-opacity:1"/></g></g><g style="stroke:url(#linearGradient3805);fill-opacity:1;fill:url(#linearGradient3811)" id="g38" transform="matrix(0.03543311,0,0,0.03543311,-0.5005,-0.50049)"><g style="stroke:url(#linearGradient3805);fill-opacity:1;fill:url(#linearGradient3811)" id="g40" class="com.sun.star.drawing.TextShape" transform="translate(-155.20944,2159.0131)"><g id="g42" line-height="125%" style="line-height:125%;stroke:url(#linearGradient3805);fill-opacity:1;fill:url(#linearGradient3811)"><path id="path44" d="m 3549,442.74 c -291.04,0.003 -516.77,107.49 -677.17,322.46 -160.4,214.98 -240.61,517.59 -240.61,907.85 0,388.61 80.2,690.4 240.61,905.37 160.4,214.97 386.12,322.46 677.17,322.46 292.69,6e-4 519.24,-107.49 679.65,-322.46 160.4,-214.97 240.6,-516.76 240.61,-905.37 0,-390.26 -80.205,-692.88 -240.61,-907.85 -160.4,-214.92 -386.9,-322.41 -679.6,-322.41 m 0,-692.05 c 595.31,0.004 1061.6,170.33 1399,510.98 337.34,340.65 506.01,811.12 506.02,1411.4 0,598.62 -168.68,1068.3 -506.02,1408.9 -337.35,340.65 -803.67,510.98 -1399,510.98 -593.66,-1e-4 -1060,-170.33 -1399,-510.98 -337.34,-340.65 -506.02,-810.29 -506.02,-1408.9 -2e-4,-600.27 168.67,-1070.7 506.02,-1411.4 339,-340.65 805.32,-510.97 1399,-510.98" style="fill:url(#linearGradient3811);stroke:url(#linearGradient3805);fill-opacity:1"/></g></g><g style="stroke:url(#linearGradient3805);fill-opacity:1;fill:url(#linearGradient3811)" id="g46" class="com.sun.star.drawing.TextShape" transform="translate(-493.87614,2159.0131)"><g id="g48" line-height="125%" style="line-height:125%;stroke:url(#linearGradient3805);fill-opacity:1;fill:url(#linearGradient3811)"><path id="path50" d="m 6748.3,-182.34 1585,0 c 471.29,0.004 832.61,105.01 1084,315.02 253,208.36 379.51,506.02 379.51,892.97 0,388.61 -126.51,687.92 -379.51,897.93 -251.36,208.36 -612.68,312.54 -1084,312.54 h -630.04 v 1284.9 h -954.98 v -3703.3 m 954.98,692.05 0,1034.4 528.34,0 c 185.21,0 328.25,-44.646 429.12,-133.95 100.87,-90.948 151.31,-219.11 151.31,-384.47 0,-165.36 -50.439,-292.69 -151.31,-381.99 C 8559.85,554.466 8416.81,509.82 8231.6,509.81 h -528.34" style="fill:url(#linearGradient3811);stroke:url(#linearGradient3805);fill-opacity:1"/></g></g><g style="stroke:url(#linearGradient3805);fill-opacity:1;fill:url(#linearGradient3811)" id="g52" class="com.sun.star.drawing.TextShape" transform="translate(-832.54284,2159.0131)"><g id="g54" line-height="125%" style="line-height:125%;stroke:url(#linearGradient3805);fill-opacity:1;fill:url(#linearGradient3811)"><path id="path56" d="m 11162,-117.34 2577.2,0 0,721.82 -1622.2,0 0,689.57 1525.5,0 0,721.82 -1525.5,0 0,848.32 1676.8,0 0,721.82 -2631.8,0 0,-3703.3" style="fill:url(#linearGradient3811);stroke:url(#linearGradient3805);fill-opacity:1"/></g></g><g style="stroke:url(#linearGradient3805);fill-opacity:1;fill:url(#linearGradient3811)" id="g58" class="com.sun.star.drawing.TextShape" transform="translate(-1227.6538,2159.0131)"><g id="g60" line-height="125%" style="line-height:125%;stroke:url(#linearGradient3805);fill-opacity:1;fill:url(#linearGradient3811)"><path id="path62" d="m 15416,-117.34 1066.6,0 1346.9,2540 0,-2540 905.37,0 0,3703.3 -1066.6,0 -1346.9,-2540 0,2540 -905.37,0 0,-3703.3" style="fill:url(#linearGradient3811);stroke:url(#linearGradient3805);fill-opacity:1"/></g></g></g><g id="g64" class="com.sun.star.drawing.CustomShape" transform="matrix(0.03543311,0,0,0.03543311,672.43766,0)" style="fill:#009000;stroke:url(#linearGradient3825);fill-opacity:1"><path style="stroke:url(#linearGradient3825);fill:#009000;fill-opacity:1" id="path66" d="M 9500,19000 0,19000 0,0 H 19000 V 19000 H 9500 z"/><path style="stroke:url(#linearGradient3825);fill:#009000;fill-opacity:1" id="path68" d="M 9500,19000 0,19000 0,0 H 19000 V 19000 H 9500 z"/></g><g id="g70" transform="matrix(1.1733935,0,0,1.0743315,1501.2227,81.174002)" style="fill:#fff;stroke:url(#linearGradient3819)"><rect style="stroke:url(#linearGradient3819)" id="rect72" width="82.833" height="354.56" x="-531.17" y="59.701"/><rect style="stroke:url(#linearGradient3819)" id="rect74" width="82.833" height="354.56" x="-390.01" y="59.701"/></g></svg>